<svg width="127" height="24" viewBox="0 0 127 24" fill="none" xmlns="http://www.w3.org/2000/svg">
<g clip-path="url(#clip0_6566_250324)">
<path fill-rule="evenodd" clip-rule="evenodd" d="M0 0H11.8921C18.46 0 23.7843 5.31831 23.7843 11.8788C23.7843 18.4393 18.46 23.7575 11.8921 23.7575H0V0ZM11.5516 10.2632C12.074 9.67317 12.3929 8.88576 12.3929 8.02087C12.3929 7.25918 12.1455 6.55746 11.7296 5.99784C12.2148 5.6094 12.8306 5.37706 13.5007 5.37706C15.066 5.37706 16.3349 6.64451 16.3349 8.208C16.3349 9.77143 15.066 11.0389 13.5007 11.0389C12.7457 11.0389 12.0596 10.744 11.5516 10.2632ZM8.21312 11.0775C6.45224 11.0775 5.02477 9.65163 5.02477 7.89271C5.02477 6.13382 6.45224 4.70795 8.21312 4.70795C9.97403 4.70795 11.4015 6.13382 11.4015 7.89271C11.4015 9.65163 9.97403 11.0775 8.21312 11.0775ZM12.9099 19.0016V15.328C12.9099 13.7805 12.0271 12.4541 10.7725 11.8971H13.4833C15.4606 11.8971 17.0636 13.4982 17.0636 15.4733C17.0636 17.4485 15.4606 19.0497 13.4833 19.0497C13.283 19.0497 13.0918 19.0332 12.9099 19.0016ZM4.62628 19.0395V15.4566C4.62628 13.4778 6.19765 11.8737 8.13603 11.8737C10.0745 11.8737 12.0121 13.4778 12.0121 15.4566V19.0395H4.62628Z" fill="#4B3BED"/>
<path d="M124.358 18.3141V5.28789H127V18.3141H124.358ZM115.467 18.3141V5.26929H118.109V18.3141H115.467ZM117.435 12.8245V10.4797H125.611V12.8245H117.435Z" fill="#111827"/>
<path d="M108.67 18.5373C107.988 18.5373 107.352 18.4566 106.761 18.2954C106.169 18.1341 105.642 17.9107 105.179 17.6254C104.717 17.3277 104.331 16.9989 104.022 16.6391C103.727 16.2794 103.534 15.901 103.444 15.504L106.028 14.7597C106.195 15.1815 106.49 15.5474 106.915 15.8576C107.339 16.1553 107.873 16.3104 108.516 16.3228C109.197 16.3352 109.75 16.1925 110.174 15.8948C110.611 15.5971 110.83 15.2124 110.83 14.741C110.83 14.3316 110.657 13.9905 110.309 13.7176C109.975 13.4322 109.512 13.2151 108.921 13.0662L107.166 12.6196C106.51 12.4583 105.932 12.2164 105.43 11.8939C104.929 11.559 104.537 11.1495 104.253 10.6657C103.97 10.1819 103.829 9.61743 103.829 8.97231C103.829 7.74413 104.247 6.78887 105.083 6.10655C105.932 5.41182 107.127 5.06445 108.67 5.06445C109.532 5.06445 110.283 5.18851 110.927 5.43663C111.582 5.67235 112.129 6.0135 112.566 6.46011C113.003 6.90673 113.337 7.43398 113.569 8.04187L111.003 8.80486C110.849 8.38301 110.566 8.02328 110.155 7.72555C109.744 7.42781 109.223 7.27887 108.593 7.27887C107.95 7.27887 107.442 7.42157 107.069 7.70689C106.709 7.99222 106.53 8.39542 106.53 8.91649C106.53 9.32587 106.671 9.64843 106.954 9.88417C107.249 10.1199 107.648 10.2997 108.149 10.4238L109.924 10.8518C111.081 11.1247 111.981 11.6148 112.624 12.3219C113.267 13.0291 113.588 13.8168 113.588 14.6852C113.588 15.4544 113.395 16.1305 113.009 16.7135C112.624 17.2843 112.064 17.7309 111.332 18.0534C110.598 18.376 109.711 18.5373 108.67 18.5373Z" fill="#111827"/>
<path d="M100.11 18.314L94.941 5.28784H97.5826L102.906 18.314H100.11ZM89.4443 18.314L94.7674 5.28784H97.4096L92.2411 18.314H89.4443ZM91.9514 15.4483V13.1966H100.418V15.4483H91.9514Z" fill="#111827"/>
<path d="M77.6382 18.314V5.28784H81.9582C83.334 5.28784 84.549 5.56697 85.6028 6.12524C86.6703 6.6835 87.4996 7.45269 88.0906 8.43271C88.6954 9.40039 88.9975 10.5231 88.9975 11.8009C88.9975 13.0664 88.6954 14.1891 88.0906 15.1691C87.4996 16.1492 86.6703 16.9184 85.6028 17.4766C84.549 18.0349 83.334 18.314 81.9582 18.314H77.6382ZM80.2805 15.9321H81.9582C82.5754 15.9321 83.1472 15.8266 83.6745 15.6157C84.2017 15.4048 84.6582 15.1133 85.044 14.7411C85.4422 14.3689 85.7511 13.9347 85.9694 13.4385C86.1884 12.9298 86.2975 12.384 86.2975 11.8009C86.2975 11.2179 86.1884 10.6782 85.9694 10.182C85.7511 9.67331 85.4422 9.23294 85.044 8.86073C84.6582 8.48853 84.2017 8.19703 83.6745 7.98611C83.1472 7.77525 82.5754 7.66979 81.9582 7.66979H80.2805V15.9321Z" fill="#111827"/>
<path fill-rule="evenodd" clip-rule="evenodd" d="M30.3907 16.2708L31.3744 14.8268C31.8258 15.3472 32.4262 15.7851 33.1756 16.1406C33.9251 16.4962 34.7128 16.6739 35.5391 16.6739C36.4843 16.6739 37.221 16.4702 37.749 16.0626C38.2855 15.655 38.5538 15.1217 38.5538 14.4626C38.5538 14.0464 38.409 13.6951 38.1195 13.409C37.8299 13.1228 37.4552 12.9017 36.9953 12.7456C36.5354 12.5895 36.0286 12.4464 35.4751 12.3164C34.9215 12.1863 34.3637 12.0345 33.8016 11.861C33.248 11.6876 32.7413 11.4752 32.2815 11.2237C31.8215 10.9721 31.4468 10.6166 31.1572 10.157C30.8676 9.68876 30.7229 9.13374 30.7229 8.49205C30.7229 7.43399 31.1402 6.55386 31.9749 5.85144C32.8094 5.14034 33.9549 4.78479 35.4112 4.78479C37.3359 4.78479 38.8945 5.40917 40.0868 6.65792L39.1798 8.03674C38.788 7.55111 38.2599 7.16087 37.5957 6.86602C36.9399 6.56253 36.2117 6.41078 35.4112 6.41078C34.5681 6.41078 33.891 6.60589 33.38 6.9961C32.8691 7.3777 32.6135 7.85893 32.6135 8.44C32.6135 8.8129 32.7584 9.12942 33.0479 9.38958C33.3374 9.6411 33.7079 9.84051 34.1593 9.98794C34.6192 10.1267 35.1259 10.2611 35.6795 10.3912C36.2415 10.5126 36.7994 10.6643 37.353 10.8465C37.9151 11.0286 38.4217 11.254 38.8731 11.5229C39.3331 11.7829 39.7078 12.1603 39.9973 12.6545C40.2869 13.1488 40.4317 13.7342 40.4317 14.4106C40.4317 15.5379 39.9973 16.4702 39.1287 17.2073C38.2685 17.9357 37.0549 18.3 35.4879 18.3C33.3673 18.3 31.6683 17.6235 30.3907 16.2708ZM42.5788 14.1894V5.10999H44.5334V13.5781C44.5334 14.6534 44.7761 15.4122 45.2616 15.8544C45.747 16.2881 46.4538 16.5048 47.3821 16.5048C48.1146 16.5048 48.8215 16.3184 49.5027 15.9455C50.184 15.5726 50.7163 15.113 51.0995 14.5667V5.10999H53.0668V17.9748H51.0995V16.1667C50.5715 16.7737 49.9115 17.281 49.1195 17.6886C48.3275 18.0961 47.4887 18.3 46.6028 18.3C43.9202 18.3 42.5788 16.9298 42.5788 14.1894ZM55.9422 17.9748H57.8967V8.86926C58.1863 8.34023 58.6845 7.86764 59.3914 7.45141C60.0982 7.02647 60.754 6.81402 61.3587 6.81402C61.5545 6.81402 61.8058 6.83136 62.1123 6.86602V4.81081C61.2949 4.81081 60.5241 5.02761 59.8002 5.4612C59.0762 5.88612 58.4418 6.45413 57.8967 7.16526V5.10999H55.9422V17.9748ZM62.7904 11.5229C62.7904 10.2914 63.0544 9.16412 63.5825 8.14083C64.1191 7.10883 64.8642 6.2937 65.8181 5.69534C66.7719 5.08831 67.8407 4.78479 69.0248 4.78479C70.2681 4.78479 71.3534 5.09265 72.2822 5.70835C73.2103 6.32405 73.9092 7.15223 74.3774 8.1928C74.8538 9.2248 75.092 10.3911 75.092 11.6919V12.1992H64.8855C64.9621 13.4654 65.405 14.5233 66.2141 15.3732C67.0317 16.223 68.0962 16.6479 69.4079 16.6479C70.1486 16.6479 70.8598 16.5048 71.5408 16.2186C72.2307 15.9325 72.8314 15.525 73.3428 14.9959L74.2744 16.2967C72.9378 17.6321 71.2642 18.3 69.2548 18.3C67.3637 18.3 65.8139 17.6712 64.6045 16.4138C63.3952 15.1564 62.7904 13.5261 62.7904 11.5229ZM64.8599 10.7034H73.1506C73.1424 10.2091 73.0524 9.71907 72.8822 9.23344C72.7209 8.74789 72.4779 8.29251 72.1545 7.86764C71.8305 7.44277 71.3966 7.10019 70.8516 6.84003C70.3065 6.57121 69.6887 6.43679 68.9987 6.43679C68.3517 6.43679 67.7641 6.56686 67.2361 6.82702C66.7081 7.08716 66.2779 7.42974 65.9458 7.85468C65.6221 8.27091 65.3667 8.72615 65.1793 9.22042C64.9919 9.70611 64.8855 10.2004 64.8599 10.7034Z" fill="#030712"/>
</g>
<defs>
<clipPath id="clip0_6566_250324">
<rect width="127" height="24" fill="white"/>
</clipPath>
</defs>
</svg>
