<svg width="100" height="99" viewBox="0 0 100 99" fill="none" xmlns="http://www.w3.org/2000/svg">
<circle cx="54.4529" cy="54.511" r="40.408" fill="#EEF2FF"/>
<circle cx="9.20979" cy="43.1131" r="9.20979" fill="#EEF2FF"/>
<ellipse cx="26.9387" cy="6.27443" rx="5.75612" ry="5.75612" fill="#EEF2FF"/>
<ellipse cx="90.3706" cy="13.7581" rx="4.48978" ry="4.48977" fill="#EEF2FF"/>
<ellipse cx="88.9891" cy="81.2198" rx="2.18733" ry="2.18733" fill="#EEF2FF"/>
<path d="M67.2671 16.8198C66.5718 16.6719 66.5718 15.6794 67.2671 15.5316C67.5205 15.4777 67.7189 15.2798 67.7738 15.0266C67.9251 14.3289 68.9216 14.3289 69.0728 15.0266C69.1277 15.2798 69.3261 15.4777 69.5795 15.5316C70.2749 15.6794 70.2749 16.6719 69.5795 16.8198C69.3261 16.8736 69.1277 17.0715 69.0728 17.3247C68.9216 18.0224 67.9251 18.0224 67.7738 17.3247C67.7189 17.0715 67.5205 16.8736 67.2671 16.8198Z" fill="#A5B4FC"/>
<path d="M6.16384 62.9136C6.37023 61.9385 7.76202 61.9385 7.96841 62.9136C8.04355 63.2686 8.32072 63.5467 8.67525 63.6239C9.65503 63.8374 9.65503 65.2375 8.67525 65.4509C8.32072 65.5282 8.04355 65.8063 7.96841 66.1613C7.76202 67.1363 6.37023 67.1363 6.16384 66.1613C6.08871 65.8063 5.81154 65.5282 5.457 65.4509C4.47722 65.2375 4.47722 63.8374 5.457 63.6239C5.81154 63.5467 6.08871 63.2686 6.16384 62.9136Z" fill="#A5B4FC"/>
<path d="M64.6906 93.3193C64.8325 92.649 65.7891 92.649 65.931 93.3193C65.9827 93.5633 66.1732 93.7545 66.4169 93.8076C67.0904 93.9543 67.0904 94.9167 66.4169 95.0634C66.1732 95.1165 65.9827 95.3077 65.931 95.5517C65.7891 96.222 64.8325 96.222 64.6906 95.5517C64.6389 95.3077 64.4484 95.1165 64.2047 95.0634C63.5312 94.9167 63.5312 93.9543 64.2047 93.8076C64.4484 93.7545 64.6389 93.5633 64.6906 93.3193Z" fill="#A5B4FC"/>
<path d="M90.1782 28.3878L77.1192 25.8854C71.695 24.846 66.4553 28.4006 65.4159 33.8247L60.3676 60.1694C59.7763 63.2554 60.6698 66.44 62.7803 68.7679L68.8818 75.498C72.1842 79.1408 77.6449 79.8422 81.7608 77.1525L88.7884 72.56C91.0586 71.0764 92.6289 68.7344 93.1393 66.0709L98.1176 40.0911C99.157 34.667 95.6024 29.4272 90.1782 28.3878Z" fill="#A5B4FC"/>
<path d="M77.7979 37.7036C75.7131 37.2582 73.665 38.5703 73.2239 40.6347C72.8679 42.3012 72.6837 46.3975 78.3331 51.7852C78.4345 51.8809 78.5602 51.947 78.6966 51.9761C78.8329 52.0053 78.9747 51.9963 79.1063 51.9503C86.4641 49.3415 87.9698 45.5275 88.3258 43.861C88.7669 41.7966 87.4337 39.7621 85.3489 39.3167C83.2641 38.8713 81.0895 40.7754 81.0895 40.7754C81.0895 40.7754 79.8827 38.1489 77.7979 37.7036Z" fill="white"/>
<ellipse cx="75.5196" cy="70.9734" rx="2.99318" ry="2.99318" fill="#EEF2FF"/>
<path d="M37.0911 13.482L14.0063 21.8434C7.77504 24.1004 4.55325 30.9815 6.81024 37.2128L20.759 75.7235C22.0431 79.2687 24.9189 82.0043 28.5239 83.1096L44.5165 88.0133C50.1576 89.7429 56.2191 87.1151 58.8127 81.8155L65.6496 67.8456C67.0801 64.9226 67.2621 61.5438 66.1539 58.484L52.4604 20.6781C50.2034 14.4468 43.3223 11.225 37.0911 13.482Z" fill="#EEF2FF" stroke="#A5B4FC" stroke-width="4"/>
<path d="M34.224 36.5031L34.2287 36.4869C34.2341 36.4687 34.2438 36.4364 34.258 36.3916C34.2865 36.302 34.3327 36.1639 34.3976 35.9909C34.5285 35.6417 34.7291 35.1675 35.0045 34.669C35.5915 33.6067 36.3438 32.7478 37.2 32.4118C39.2016 31.6264 41.4209 32.6038 42.1807 34.5398C42.5478 35.4755 43.0368 37.2486 42.6449 39.8596C42.2637 42.3999 41.031 45.85 37.8534 50.1821C32.5775 49.1672 29.3274 47.4762 27.3203 45.8731C25.2573 44.2253 24.4099 42.593 24.0428 41.6573C23.283 39.7212 24.2454 37.4953 26.247 36.7098C27.1032 36.3739 28.2388 36.4919 29.3916 36.8716C29.9326 37.0497 30.4021 37.2609 30.7356 37.4279C30.9008 37.5106 31.0286 37.5804 31.1104 37.6268C31.1513 37.6499 31.1804 37.6669 31.1967 37.6767L31.2113 37.6853L34.224 36.5031ZM34.224 36.5031L34.2246 36.5009L34.2251 36.4992L34.2253 36.4982L34.224 36.5031ZM31.2114 37.6854C31.753 38.0194 32.4203 38.0793 33.0129 37.8467C33.6055 37.6142 34.054 37.1165 34.2239 36.5033L31.2114 37.6854Z" fill="#A5B4FC" stroke="#A5B4FC" stroke-width="4.04771" stroke-linecap="round" stroke-linejoin="round"/>
<ellipse cx="47.5461" cy="75.4643" rx="3.79904" ry="3.79904" fill="#A5B4FC"/>
</svg>
